<svg width="32" height="32" viewBox="0 0 32 32" fill="none" xmlns="http://www.w3.org/2000/svg">
<path d="M27.6172 15.6084C27.6172 8.97624 22.2406 3.59961 15.6084 3.59961C8.97626 3.59964 3.59964 8.97626 3.59961 15.6084C3.59961 22.2406 8.97624 27.6172 15.6084 27.6172C17.0203 27.6172 18.3737 27.3741 19.6299 26.9277C20.0461 26.7798 20.5033 26.997 20.6514 27.4131C20.7992 27.8293 20.5821 28.2865 20.166 28.4346C18.7402 28.9412 17.2054 29.2168 15.6084 29.2168C8.09259 29.2168 2 23.1242 2 15.6084C2.00003 8.0926 8.0926 2.00003 15.6084 2C23.1242 2 29.2168 8.09259 29.2168 15.6084C29.2168 17.0741 28.9856 18.4876 28.5557 19.8125C28.4192 20.2326 27.9671 20.4625 27.5469 20.3262C27.1269 20.1896 26.8969 19.7385 27.0332 19.3184C27.412 18.151 27.6172 16.9044 27.6172 15.6084Z" fill="#FF9D00"/>
<path d="M24.3401 28.8V25.5579H21.0979C20.656 25.5579 20.2981 25.1989 20.2981 24.7571C20.2983 24.3154 20.6562 23.9573 21.0979 23.9573H24.3401V21.0979C24.3401 20.6562 24.6982 20.2983 25.1399 20.2981C25.5817 20.2981 25.9406 20.6561 25.9406 21.0979V23.9573H28.8C29.2416 23.9574 29.5996 24.3155 29.5998 24.7571C29.5998 25.1988 29.2417 25.5577 28.8 25.5579H25.9406V28.8C25.9405 29.2418 25.5816 29.5999 25.1399 29.5999C24.6983 29.5997 24.3402 29.2417 24.3401 28.8Z" fill="#FF9D00"/>
<path d="M15.5625 22.8674C17.9932 22.8674 20.1479 21.6823 21.5175 19.8586C21.7828 19.5054 21.7116 19.0038 21.3584 18.7385C21.005 18.4732 20.5035 18.5444 20.2382 18.8977C19.1506 20.3459 17.4574 21.2678 15.5625 21.2678C13.6675 21.2678 11.9742 20.3459 10.8867 18.8977C10.6214 18.5444 10.1199 18.4732 9.76656 18.7385C9.41348 19.0039 9.34213 19.5054 9.60738 19.8586C10.977 21.6823 13.1316 22.8674 15.5625 22.8674Z" fill="#FF9D00"/>
<path d="M11.6561 12.6533C11.6561 13.0424 11.312 13.3578 10.8875 13.3578C10.4631 13.3578 10.119 13.0424 10.119 12.6533C10.119 12.2642 10.4631 11.9488 10.8875 11.9488C11.312 11.9488 11.6561 12.2642 11.6561 12.6533Z" fill="#FF9D00"/>
<path d="M10.9061 12.7142C10.9001 12.7272 10.8925 12.7353 10.8876 12.7406V12.5668C10.8925 12.5721 10.9003 12.5795 10.9061 12.5922C10.9141 12.6095 10.9188 12.6314 10.9188 12.6537C10.9188 12.6757 10.914 12.697 10.9061 12.7142ZM10.869 12.7142C10.8611 12.697 10.8564 12.6757 10.8563 12.6537L10.869 12.5922C10.8749 12.5795 10.8827 12.5721 10.8876 12.5668V12.7406C10.8826 12.7353 10.875 12.7272 10.869 12.7142ZM12.4559 12.6537C12.4559 11.7587 11.6869 11.1488 10.8876 11.1488C10.0883 11.1488 9.31921 11.7587 9.31921 12.6537C9.31943 13.5485 10.0884 14.1576 10.8876 14.1576C11.6868 14.1576 12.4557 13.5485 12.4559 12.6537Z" fill="#FF9D00"/>
<path d="M21.0064 12.6533C21.0064 13.0424 20.691 13.3578 20.3019 13.3578C19.9128 13.3578 19.5974 13.0424 19.5974 12.6533C19.5974 12.2642 19.9128 11.9488 20.3019 11.9488C20.691 11.9488 21.0064 12.2642 21.0064 12.6533Z" fill="#FF9D00"/>
<path d="M20.3015 12.7484C20.249 12.7482 20.207 12.7062 20.2068 12.6537L20.2136 12.6166C20.228 12.5821 20.2619 12.5581 20.3015 12.558C20.3543 12.558 20.3972 12.6009 20.3972 12.6537C20.3971 12.6933 20.3731 12.7272 20.3386 12.7416L20.3015 12.7484ZM21.8064 12.6537C21.8064 11.8228 21.1324 11.1488 20.3015 11.1488C19.4708 11.149 18.7976 11.8229 18.7976 12.6537C18.7978 13.4843 19.4709 14.1574 20.3015 14.1576C21.1323 14.1576 21.8062 13.4844 21.8064 12.6537Z" fill="#FF9D00"/>
</svg>
