<svg width="32" height="32" viewBox="0 0 32 32" fill="none" xmlns="http://www.w3.org/2000/svg">
<path d="M28 15.7998C28 9.06194 22.5377 3.59961 15.7998 3.59961C9.06194 3.59961 3.59961 9.06194 3.59961 15.7998C3.59961 22.5377 9.06194 28 15.7998 28C17.2342 28 18.6095 27.7523 19.8857 27.2988C20.302 27.1512 20.7593 27.369 20.9072 27.7852C21.0551 28.2015 20.8372 28.6587 20.4209 28.8066C18.9751 29.3203 17.4192 29.5996 15.7998 29.5996C8.17829 29.5996 2 23.4213 2 15.7998C2 8.17829 8.17829 2 15.7998 2C23.4213 2 29.5996 8.17829 29.5996 15.7998C29.5996 17.2861 29.3646 18.719 28.9287 20.0625C28.7923 20.4828 28.3412 20.7125 27.9209 20.5762C27.5006 20.4398 27.2699 19.9886 27.4062 19.5684C27.791 18.3825 28 17.1163 28 15.7998Z" fill="#FF9D00"/>
<path d="M22.2998 25.8854C21.858 25.8854 21.5 25.5274 21.5 25.0856C21.5 24.6437 21.858 24.2858 22.2998 24.2858L28.7998 24.2858C29.2416 24.2858 29.5996 24.6437 29.5996 25.0856C29.5996 25.5274 29.2416 25.8854 28.7998 25.8854L22.2998 25.8854Z" fill="#FF9D00"/>
<path d="M15.7528 23.1553C18.2161 23.1553 20.3999 21.9538 21.7879 20.1055C22.053 19.7522 21.982 19.2506 21.6288 18.9854C21.2755 18.7201 20.7739 18.7922 20.5086 19.1455C19.4027 20.6181 17.6801 21.5557 15.7528 21.5557C13.8257 21.5555 12.1038 20.618 10.9979 19.1455C10.7326 18.7922 10.2311 18.7202 9.87779 18.9854C9.52455 19.2506 9.45349 19.7522 9.71861 20.1055C11.1065 21.9537 13.2896 23.1551 15.7528 23.1553Z" fill="#FF9D00"/>
<path d="M11.7883 12.8005C11.7883 13.1954 11.4391 13.5155 11.0083 13.5155C10.5776 13.5155 10.2283 13.1954 10.2283 12.8005C10.2283 12.4056 10.5776 12.0855 11.0083 12.0855C11.4391 12.0855 11.7883 12.4056 11.7883 12.8005Z" fill="#FF9D00"/>
<path d="M11.0164 12.8573C11.0143 12.862 11.0108 12.8656 11.0086 12.869V12.7333C11.0106 12.7365 11.0144 12.7398 11.0164 12.744C11.0237 12.76 11.0281 12.7801 11.0281 12.8007C11.0281 12.8213 11.0238 12.8413 11.0164 12.8573ZM11.0008 12.8573C10.9934 12.8413 10.9881 12.8214 10.9881 12.8007C10.9881 12.78 10.9934 12.76 11.0008 12.744C11.0028 12.7396 11.0066 12.7366 11.0086 12.7333V12.869C11.0064 12.8655 11.003 12.8621 11.0008 12.8573ZM12.5887 12.8007C12.5887 11.9 11.8142 11.2852 11.0086 11.285C10.203 11.285 9.42853 11.8999 9.42853 12.8007C9.42862 13.7014 10.203 14.3153 11.0086 14.3153C11.8141 14.3152 12.5886 13.7013 12.5887 12.8007Z" fill="#FF9D00"/>
<path d="M21.2783 12.8005C21.2783 13.1954 20.9582 13.5155 20.5633 13.5155C20.1685 13.5155 19.8483 13.1954 19.8483 12.8005C19.8483 12.4056 20.1685 12.0855 20.5633 12.0855C20.9582 12.0855 21.2783 12.4056 21.2783 12.8005Z" fill="#FF9D00"/>
<path d="M20.5632 12.8856C20.5163 12.8855 20.4783 12.8475 20.4782 12.8007C20.4782 12.7538 20.5163 12.7158 20.5632 12.7157C20.6101 12.7157 20.6481 12.7537 20.6481 12.8007C20.648 12.8475 20.6101 12.8856 20.5632 12.8856ZM22.0788 12.8007C22.0788 11.964 21.3999 11.285 20.5632 11.285C19.7265 11.2851 19.0485 11.964 19.0485 12.8007C19.0486 13.6372 19.7266 14.3152 20.5632 14.3153C21.3998 14.3153 22.0787 13.6373 22.0788 12.8007Z" fill="#FF9D00"/>
</svg>
