<svg width="32" height="32" viewBox="0 0 32 32" fill="none" xmlns="http://www.w3.org/2000/svg">
<path d="M28.9216 26.9675C29.3633 26.9677 29.7214 27.3256 29.7214 27.7673C29.7214 28.2091 29.3633 28.567 28.9216 28.5671H3.07685C2.63502 28.5671 2.27705 28.2092 2.27705 27.7673C2.27705 27.3255 2.63502 26.9675 3.07685 26.9675H28.9216Z" fill="#FF9D00"/>
<path d="M3.26728 3.41259C3.45693 3.28548 3.69175 3.24511 3.91279 3.30224L6.73701 4.03173L6.83271 4.06396C7.05052 4.15068 7.22172 4.32944 7.29658 4.55517L8.8542 9.25439L13.3093 10.4399L12.7106 5.82275C12.6757 5.55349 12.7798 5.2844 12.987 5.10888C13.1942 4.93345 13.4762 4.87491 13.736 4.95361L16.7487 5.86669L16.8884 5.92334C17.0211 5.99295 17.1325 6.09953 17.2087 6.23095L20.8093 12.436L27.6442 14.2544L27.7224 14.2798C27.799 14.3089 27.8708 14.3498 27.9352 14.4009L27.4382 15.0278L27.9362 14.4019L27.9372 14.4028C27.938 14.4034 27.9391 14.404 27.9401 14.4048C27.9422 14.4065 27.9449 14.4091 27.9479 14.4116C27.9541 14.4166 27.9626 14.423 27.9724 14.4311C27.992 14.4475 28.0188 14.4701 28.0515 14.4985C28.1171 14.5558 28.207 14.6381 28.3112 14.7407C28.5175 14.9439 28.7898 15.2392 29.0388 15.6011C29.5138 16.2918 30.0392 17.4341 29.4831 18.647C28.9715 19.7625 27.9673 20.2768 27.2058 20.5142C26.8167 20.6354 26.4592 20.6953 26.1999 20.7251C26.0693 20.7401 25.9607 20.7475 25.8825 20.7515C25.8437 20.7534 25.8121 20.7548 25.7888 20.7554C25.7771 20.7556 25.7669 20.7563 25.7595 20.7563H25.7438C25.6666 20.7563 25.5894 20.7452 25.5153 20.7231L18.4558 18.6167C18.417 18.6341 18.375 18.6545 18.3288 18.6753C18.0731 18.7903 17.7062 18.955 17.2614 19.1538C16.3717 19.5515 15.1687 20.0863 13.9186 20.6333C12.6695 21.18 11.3697 21.7409 10.2858 22.1899C9.2283 22.6281 8.31046 22.9881 7.86787 23.103C6.75934 23.3909 5.70047 22.8454 5.05341 22.4077C4.70587 22.1726 4.41497 21.9265 4.21259 21.7407C4.11101 21.6474 4.0295 21.568 3.97236 21.5102C3.94373 21.4813 3.92125 21.4571 3.90498 21.4399C3.89695 21.4315 3.89032 21.4247 3.88545 21.4194L3.87568 21.4097C3.71819 21.2376 3.64368 21.0045 3.67158 20.7729C3.69948 20.5415 3.82649 20.3333 4.02021 20.2036L10.3894 15.9409C9.6751 15.7734 8.81588 15.5684 7.94111 15.3472C6.85383 15.0722 5.73161 14.7717 4.8288 14.4917C4.37862 14.3521 3.96971 14.2138 3.64228 14.0825C3.47893 14.017 3.32463 13.9479 3.19013 13.8774C3.06848 13.8137 2.90994 13.7212 2.779 13.5942C2.59492 13.4157 2.50409 13.1967 2.45576 13.0503C2.40216 12.8879 2.3677 12.7108 2.34345 12.5376C2.29478 12.1896 2.27705 11.7662 2.27705 11.3149C2.27705 10.407 2.35022 9.28419 2.44502 8.20459C2.54017 7.12086 2.65886 6.0623 2.75361 5.27587C2.80103 4.88228 2.84207 4.55578 2.87177 4.32763C2.8866 4.21372 2.89871 4.12425 2.90693 4.06298C2.91103 4.03241 2.91452 4.00868 2.9167 3.99267C2.91778 3.98467 2.91808 3.97828 2.91865 3.97412C2.91893 3.97207 2.91948 3.97032 2.91962 3.96923V3.96728C2.95082 3.74121 3.07771 3.53968 3.26728 3.41259ZM4.3415 5.46728C4.24797 6.24354 4.13189 7.28367 4.03877 8.34423C3.94526 9.40925 3.87666 10.4775 3.87666 11.3149C3.87666 11.7362 3.89472 12.075 3.92841 12.3159C3.93747 12.3805 3.94707 12.4317 3.95576 12.4712C4.02392 12.5056 4.1168 12.5486 4.23798 12.5972C4.50776 12.7054 4.8701 12.8293 5.30244 12.9634C6.16488 13.2309 7.2556 13.5238 8.33369 13.7964C9.40938 14.0684 10.4634 14.3177 11.2487 14.4995C11.6408 14.5903 11.9655 14.6643 12.1921 14.7153C12.3054 14.7408 12.3945 14.7605 12.4548 14.7739C12.4848 14.7806 12.5077 14.7861 12.5231 14.7895C12.5308 14.7913 12.5369 14.7926 12.5407 14.7935C12.5424 14.7938 12.5437 14.7942 12.5446 14.7944H12.5466C12.8594 14.8635 13.1004 15.1124 13.1599 15.4272C13.2193 15.7422 13.0854 16.0625 12.819 16.2407L5.77216 20.9565C5.82915 20.9987 5.8886 21.0411 5.9499 21.0825C6.52674 21.4727 7.06774 21.6575 7.46552 21.5542C7.7762 21.4735 8.5775 21.1655 9.67353 20.7114C10.743 20.2683 12.0317 19.7125 13.277 19.1675C14.5219 18.6227 15.7208 18.0905 16.6081 17.6938C17.0517 17.4955 17.4178 17.3309 17.6726 17.2163C17.7996 17.1592 17.8988 17.114 17.9665 17.0835C18.0002 17.0683 18.0263 17.0562 18.0436 17.0483C18.0523 17.0444 18.0598 17.0415 18.0642 17.0395C18.0661 17.0387 18.068 17.0381 18.069 17.0376L18.07 17.0366C18.2455 16.9573 18.4441 16.9445 18.6286 16.9995L25.8425 19.1499C25.8881 19.1469 25.9475 19.1433 26.0173 19.1352C26.2051 19.1137 26.4596 19.0708 26.7292 18.9868C27.2856 18.8135 27.7874 18.5067 28.029 17.98C28.2261 17.5502 28.0926 17.0496 27.7204 16.5083C27.5458 16.2544 27.3476 16.0364 27.1892 15.8804C27.1377 15.8297 27.0897 15.7881 27.0515 15.7534L8.02607 10.6909C7.76555 10.6216 7.5573 10.4253 7.47236 10.1694L5.91474 5.47216L4.39033 5.07763C4.37537 5.198 4.35823 5.3284 4.3415 5.46728ZM14.9811 10.8852L18.6198 11.853L15.9831 7.30615L14.4567 6.84326L14.9811 10.8852Z" fill="#FF9D00"/>
<path d="M19.182 19.2689C19.7129 19.2423 20.1649 19.6511 20.1915 20.182C20.2182 20.7129 19.8094 21.1649 19.2785 21.1916C18.7476 21.2182 18.2956 20.8094 18.2689 20.2785C18.2422 19.7476 18.651 19.2956 19.182 19.2689Z" fill="#FF9D00"/>
</svg>
