<svg width="32" height="32" viewBox="0 0 32 32" fill="none" xmlns="http://www.w3.org/2000/svg">
<path d="M8.70306 22.2549H2.86472V23.2725C2.86472 24.3171 3.73583 25.2001 4.85489 25.2002H6.7129C7.83188 25.2 8.70306 24.3171 8.70306 23.2725V22.2549ZM29.1353 22.2549H23.297V23.2725C23.297 24.3171 24.1681 25.2 25.2871 25.2002H27.1451C28.2642 25.2001 29.1353 24.3171 29.1353 23.2725V22.2549ZM8.67099 20.6543H23.329L21.2485 18.6182H10.7515L8.67099 20.6543ZM8.46401 6.7998C7.76851 6.79988 7.17768 7.2501 6.99568 7.87305C6.72052 8.81582 6.376 9.99535 6.10069 10.9385C6.03538 11.1622 5.97372 11.3726 5.918 11.5635H26.082C26.0263 11.3726 25.9646 11.1622 25.8993 10.9385C25.624 9.99535 25.2795 8.81582 25.0043 7.87305C24.8223 7.25007 24.2315 6.79988 23.536 6.7998H8.46401ZM29.1353 15.0908C29.1353 14.5866 28.9309 14.0984 28.56 13.7354C28.2345 13.4169 27.8045 13.2177 27.3443 13.1729L27.1451 13.1641H4.85489C4.32075 13.1641 3.81212 13.3714 3.44001 13.7354C3.06914 14.0984 2.86474 14.5866 2.86472 15.0908V16.1094H4.85489C5.29455 16.1094 5.65076 16.4674 5.65076 16.9092C5.65072 17.351 5.29452 17.709 4.85489 17.709H2.86472V20.6543H6.3893L9.87209 17.2451L9.9304 17.1934C10.0709 17.0804 10.2465 17.0186 10.4279 17.0186H21.5721L21.6498 17.0215C21.829 17.0391 21.9979 17.1178 22.1279 17.2451L25.6107 20.6543H29.1353V17.709H27.1451C26.7055 17.709 26.3493 17.351 26.3493 16.9092C26.3493 16.4674 26.7055 16.1094 27.1451 16.1094H29.1353V15.0908ZM30.727 23.2725C30.727 25.2401 29.1038 26.7997 27.1451 26.7998H25.2871C23.3285 26.7996 21.7052 25.2401 21.7052 23.2725V22.2549H10.2948V23.2725C10.2948 25.2401 8.67151 26.7996 6.7129 26.7998H4.85489C2.89621 26.7997 1.27298 25.2401 1.27298 23.2725V15.0908C1.273 14.1486 1.65547 13.2496 2.32928 12.5898V12.5889C2.60726 12.3169 2.92595 12.0959 3.26995 11.9287C3.21218 11.8722 3.15473 11.8163 3.09892 11.7617V11.7607C2.82953 11.4971 2.45884 11.3457 2.06885 11.3457C1.62935 11.3457 1.27322 10.9875 1.27298 10.5459C1.27298 10.1041 1.6292 9.74512 2.06885 9.74512C2.86761 9.74512 3.63843 10.056 4.20964 10.6152C4.29199 10.6958 4.37758 10.7794 4.46327 10.8633C4.49822 10.7435 4.53515 10.6182 4.57308 10.4883C4.84839 9.54516 5.19292 8.36558 5.46807 7.42285C5.85574 6.09512 7.08616 5.20027 8.46401 5.2002H23.536C24.9138 5.20027 26.1443 6.09504 26.532 7.42285C26.8071 8.36558 27.1516 9.54516 27.4269 10.4883C27.4648 10.6181 27.5009 10.7436 27.5358 10.8633C27.6216 10.7792 27.7079 10.696 27.7904 10.6152L28.0139 10.417C28.555 9.98306 29.2324 9.74512 29.9312 9.74512C30.3708 9.74512 30.727 10.1041 30.727 10.5459C30.7268 10.9875 30.3707 11.3457 29.9312 11.3457C29.5411 11.3457 29.1704 11.4971 28.9011 11.7607V11.7617C28.8451 11.8165 28.787 11.872 28.7291 11.9287C29.0734 12.0959 29.3926 12.3167 29.6707 12.5889V12.5898C30.3446 13.2496 30.727 14.1486 30.727 15.0908V23.2725Z" fill="#FF9D00"/>
</svg>
