<svg width="32" height="32" viewBox="0 0 32 32" fill="none" xmlns="http://www.w3.org/2000/svg">
<path d="M14.2553 23.8597C14.2553 23.4212 13.8923 23.0616 13.4496 23.0615C13.0069 23.0615 12.643 23.4211 12.643 23.8597C12.643 24.2984 13.0069 24.6579 13.4496 24.6579C13.8923 24.6578 14.2553 24.2983 14.2553 23.8597ZM23.0385 23.8597C23.0385 23.4212 22.6754 23.0618 22.2328 23.0615C21.7901 23.0615 21.4262 23.4211 21.4262 23.8597C21.4262 24.2984 21.7901 24.6579 22.2328 24.6579C22.6754 24.6577 23.0385 24.2982 23.0385 23.8597ZM9.81097 19.3055C9.98589 20.5417 11.0316 21.4428 12.2914 21.4428H23.35C24.6228 21.4428 25.6777 20.52 25.8354 19.2688L26.9203 10.6558H8.58734L9.81097 19.3055ZM24.6381 23.8597C24.6381 25.1737 23.5591 26.2435 22.2328 26.2437C20.9065 26.2437 19.8266 25.1738 19.8266 23.8597C19.8266 23.5668 19.8828 23.2871 19.9809 23.0277H15.7016C15.7996 23.2871 15.8559 23.5669 15.8559 23.8597C15.8559 25.1738 14.7759 26.2436 13.4496 26.2437C12.1232 26.2437 11.0434 25.1738 11.0434 23.8597C11.0434 23.5168 11.1182 23.191 11.2504 22.8961C9.67655 22.4924 8.46194 21.1925 8.22601 19.5261L7.56586 14.8626C7.5067 14.7706 7.4654 14.6651 7.44867 14.5501L6.25336 6.34152H4.86957C4.42774 6.34152 4.06976 5.98685 4.06976 5.54911C4.06976 5.11137 4.42774 4.7567 4.86957 4.7567H6.94672C7.34441 4.7567 7.68191 5.04593 7.73871 5.43591L8.26801 9.07094H27.8256C28.0551 9.07094 28.2743 9.16856 28.4262 9.33895C28.578 9.50932 28.648 9.73656 28.6196 9.96204L27.4233 19.4642C27.2118 21.1433 26.0032 22.4664 24.4262 22.8864C24.5613 23.184 24.6381 23.5129 24.6381 23.8597Z" fill="#2B5F84"/>
</svg>
