<svg width="32" height="32" viewBox="0 0 32 32" fill="none" xmlns="http://www.w3.org/2000/svg">
<path d="M7.2002 27V17C7.2002 16.5582 7.55817 16.2002 8 16.2002C8.44183 16.2002 8.7998 16.5582 8.7998 17V27C8.7998 27.4418 8.44183 27.7998 8 27.7998C7.55817 27.7998 7.2002 27.4418 7.2002 27ZM15.2002 27V5C15.2002 4.55817 15.5582 4.2002 16 4.2002C16.4418 4.2002 16.7998 4.55817 16.7998 5V27C16.7998 27.4418 16.4418 27.7998 16 27.7998C15.5582 27.7998 15.2002 27.4418 15.2002 27ZM23.2002 27V11C23.2002 10.5582 23.5582 10.2002 24 10.2002C24.4418 10.2002 24.7998 10.5582 24.7998 11V27C24.7998 27.4418 24.4418 27.7998 24 27.7998C23.5582 27.7998 23.2002 27.4418 23.2002 27Z" fill="#2B5F84"/>
</svg>
