<svg width="32" height="32" viewBox="0 0 32 32" fill="none" xmlns="http://www.w3.org/2000/svg">
<path d="M15.2002 30V27.6357C9.40972 27.2406 4.75906 22.5903 4.36426 16.7998H2C1.55817 16.7998 1.2002 16.4418 1.2002 16C1.2002 15.5582 1.55817 15.2002 2 15.2002H4.36426C4.75967 9.4102 9.41012 4.75936 15.2002 4.36426V2C15.2002 1.55818 15.5582 1.2002 16 1.2002C16.4418 1.2002 16.7998 1.55817 16.7998 2V4.36426C22.5899 4.7593 27.2403 9.41016 27.6357 15.2002H30C30.4418 15.2002 30.7998 15.5582 30.7998 16C30.7998 16.4418 30.4418 16.7998 30 16.7998H27.6357C27.2409 22.5904 22.5903 27.2406 16.7998 27.6357V30C16.7998 30.4418 16.4418 30.7998 16 30.7998C15.5582 30.7998 15.2002 30.4418 15.2002 30ZM16 5.93652C10.4583 5.93656 5.93652 10.4593 5.93652 16.001C5.9367 21.5425 10.4584 26.0644 16 26.0645C21.5416 26.0645 26.0633 21.5425 26.0635 16.001C26.0635 10.4592 21.5417 5.93652 16 5.93652ZM20.4404 10.5049C20.7425 10.3714 21.0955 10.4376 21.3291 10.6709C21.5628 10.9046 21.6287 11.2583 21.4951 11.5605L17.0039 21.7207C16.869 22.0258 16.5586 22.2156 16.2256 22.1963C15.8926 22.1769 15.6065 21.9524 15.5078 21.6338L14.293 17.707L10.3672 16.4932C10.0484 16.3946 9.82411 16.1085 9.80469 15.7754C9.78527 15.4423 9.97509 15.132 10.2803 14.9971L20.4404 10.5049ZM12.8828 15.5957L15.1699 16.3027L15.2617 16.3379C15.4695 16.4314 15.629 16.6104 15.6973 16.8311L16.4043 19.1182L19.1953 12.8047L12.8828 15.5957Z" fill="#FF9D00"/>
</svg>
