<svg width="24" height="24" viewBox="0 0 24 24" fill="none" xmlns="http://www.w3.org/2000/svg">
<path d="M16.3999 8.00024C16.3999 5.57027 14.4302 3.59999 12.0002 3.59985C9.57019 3.59985 7.59985 5.57019 7.59985 8.00024C7.59999 10.4302 9.57027 12.3999 12.0002 12.3999C14.4301 12.3998 16.3998 10.4301 16.3999 8.00024ZM17.6003 8.00024C17.6002 11.0928 15.0928 13.6002 12.0002 13.6003C8.90753 13.6003 6.40028 11.0929 6.40015 8.00024C6.40015 4.90745 8.90745 2.40015 12.0002 2.40015C15.0929 2.40028 17.6003 4.90753 17.6003 8.00024Z" fill="#2B5F84"/>
<path d="M19.3999 21.0002C19.3999 19.0376 18.6204 17.1549 17.2327 15.7671C15.845 14.3795 13.9627 13.5999 12.0002 13.5999C10.0376 13.5999 8.15486 14.3793 6.76709 15.7671C5.37932 17.1549 4.59985 19.0376 4.59985 21.0002C4.59972 21.3315 4.33129 21.6001 4 21.6001C3.66871 21.6001 3.40028 21.3315 3.40015 21.0002C3.40015 18.7194 4.30613 16.5318 5.91895 14.9189C7.53176 13.3061 9.71938 12.4001 12.0002 12.4001C14.281 12.4002 16.4681 13.3063 18.0808 14.9189C19.6936 16.5318 20.6003 18.7194 20.6003 21.0002C20.6002 21.3315 20.331 21.6001 19.9998 21.6001C19.6686 21.6 19.4 21.3314 19.3999 21.0002Z" fill="#2B5F84"/>
</svg>
