<svg width="32" height="32" viewBox="0 0 32 32" fill="none" xmlns="http://www.w3.org/2000/svg">
<path d="M19.893 12.8379L26.5033 11.067C26.853 10.966 27.2192 10.9358 27.5807 10.978C27.9421 11.0203 28.2915 11.1342 28.6084 11.3131C28.9253 11.492 29.2034 11.7323 29.4263 12.02C29.6492 12.3076 29.8126 12.6368 29.9067 12.9883C30.0009 13.3398 30.0241 13.7066 29.9748 14.0672C29.9256 14.4277 29.8049 14.7749 29.6199 15.0882C29.4349 15.4016 29.1892 15.675 28.8973 15.8923C28.6054 16.1096 28.2731 16.2665 27.9198 16.3539L8.09025 21.6681L2 14.7978L5.96482 13.7357L9.31788 15.6709L13.2827 14.6089L8.16005 6.0634L12.1262 5L19.893 12.8379Z" stroke="#FF9D00" stroke-width="2" stroke-linecap="round" stroke-linejoin="round"/>
<path d="M3.96399 27.5394H28.5987" stroke="#FF9D00" stroke-width="2" stroke-linecap="round" stroke-linejoin="round"/>
</svg>
