<svg width="32" height="32" viewBox="0 0 32 32" fill="none" xmlns="http://www.w3.org/2000/svg">
<g clip-path="url(#clip0_21_496)">
<path d="M27.9969 15.2356C28.5279 15.209 28.9799 15.6177 29.0065 16.1487C29.0332 16.6796 28.6244 17.1316 28.0934 17.1583C27.5625 17.1849 27.1105 16.7761 27.0839 16.2452C27.0572 15.7143 27.466 15.2623 27.9969 15.2356Z" fill="#FF9D00"/>
<path d="M26.5537 10.9337C27.0342 10.7059 27.6084 10.9106 27.8362 11.391C28.0641 11.8715 27.8593 12.4457 27.3789 12.6735C26.8985 12.9014 26.3243 12.6966 26.0964 12.2162C25.8685 11.7358 26.0733 11.1616 26.5537 10.9337Z" fill="#FF9D00"/>
<path d="M23.5331 7.54276C23.8897 7.14848 24.4984 7.11793 24.8926 7.47448C25.2869 7.83105 25.3175 8.43977 24.9609 8.834C24.6043 9.22827 23.9956 9.25882 23.6014 8.90226C23.2071 8.54569 23.1766 7.93703 23.5331 7.54276Z" fill="#FF9D00"/>
<path d="M5.05969 12.6831C2.7698 19.1048 6.00259 25.921 12.4244 28.2112C17.1592 29.8996 22.2409 28.5224 25.5014 25.1118C25.8068 24.7925 25.7952 24.2852 25.4759 23.9799C25.1565 23.6749 24.65 23.6865 24.3448 24.0058C21.5045 26.977 17.0808 28.1733 12.9617 26.7045C7.37211 24.7111 4.5733 18.8097 6.56637 13.2204C8.0434 9.07855 11.6046 6.36616 15.6801 6.04948C16.1205 6.01508 16.4491 5.63007 16.4149 5.18968C16.3807 4.7492 15.9959 4.41975 15.5555 4.45397C10.8267 4.82157 6.74047 7.96989 5.05969 12.6831Z" fill="#FF9D00"/>
<path d="M26.4879 19.9403C26.8444 19.5461 27.4531 19.5155 27.8474 19.8721C28.2416 20.2286 28.2722 20.8373 27.9156 21.2316C27.5591 21.6258 26.9504 21.6564 26.5561 21.2998C26.1619 20.9433 26.1313 20.3346 26.4879 19.9403Z" fill="#FF9D00"/>
<path d="M19.6005 5.41898C19.9571 5.0247 20.5657 4.99414 20.96 5.35071C21.3543 5.70728 21.3848 6.31599 21.0283 6.71021C20.6717 7.10449 20.063 7.13505 19.6688 6.77848C19.2745 6.42191 19.2439 5.81325 19.6005 5.41898Z" fill="#FF9D00"/>
<path d="M17.4243 11.4653L17.4243 17.4106L15.8247 17.4106L15.8247 11.4653C15.8247 11.0235 16.1827 10.6655 16.6245 10.6655C17.0663 10.6655 17.4243 11.0235 17.4243 11.4653Z" fill="#FF9D00"/>
<path d="M16.6248 18.2104C16.183 18.2104 15.824 17.8525 15.824 17.4106C15.824 16.9688 16.183 16.6108 16.6248 16.6108H21.7205C22.1623 16.6108 22.5203 16.9688 22.5203 17.4106C22.5203 17.8525 22.1623 18.2104 21.7205 18.2104H16.6248Z" fill="#FF9D00"/>
<path d="M13.611 2.81447C13.3539 3.17362 13.4362 3.67316 13.7952 3.9304L16.5708 5.91725C16.93 6.17432 17.4295 6.09199 17.6868 5.73304C17.9439 5.37376 17.8611 4.87361 17.5018 4.61645L14.7269 2.63026C14.3678 2.37317 13.8682 2.45549 13.611 2.81447Z" fill="#FF9D00"/>
<path d="M14.3146 7.09995C14.0194 7.42862 14.0464 7.93416 14.3751 8.22943C14.7037 8.52469 15.2093 8.4976 15.5045 8.16896L17.6315 5.80144C17.9267 5.47276 17.8997 4.96723 17.571 4.67196C17.2423 4.37669 16.7368 4.40375 16.4415 4.73242L14.3146 7.09995Z" fill="#FF9D00"/>
</g>
<defs>
<clipPath id="clip0_21_496">
<rect width="32" height="32" fill="white"/>
</clipPath>
</defs>
</svg>
