<svg width="32" height="32" viewBox="0 0 32 32" fill="none" xmlns="http://www.w3.org/2000/svg">
<path d="M27.9969 15.2357C28.5279 15.209 28.9799 15.6178 29.0065 16.1487C29.0332 16.6796 28.6244 17.1317 28.0934 17.1583C27.5625 17.1849 27.1105 16.7761 27.0839 16.2452C27.0572 15.7143 27.466 15.2623 27.9969 15.2357Z" fill="#FF9D00"/>
<path d="M26.5537 10.9338C27.0342 10.7059 27.6084 10.9107 27.8362 11.3911C28.0641 11.8716 27.8593 12.4457 27.3789 12.6735C26.8985 12.9014 26.3243 12.6967 26.0964 12.2162C25.8685 11.7358 26.0733 11.1617 26.5537 10.9338Z" fill="#FF9D00"/>
<path d="M23.5331 7.54288C23.8897 7.1486 24.4984 7.11805 24.8926 7.4746C25.2869 7.83117 25.3175 8.43989 24.9609 8.83412C24.6043 9.22839 23.9956 9.25895 23.6014 8.90238C23.2071 8.54581 23.1766 7.93715 23.5331 7.54288Z" fill="#FF9D00"/>
<path d="M24.9232 24.5587C21.8728 27.7497 17.1204 29.0366 12.6934 27.458C6.68746 25.3163 3.67143 18.9576 5.81295 12.952C7.39184 8.52428 11.2155 5.59375 15.6178 5.25167" stroke="#FF9D00" stroke-width="2" stroke-miterlimit="10" stroke-linecap="round"/>
<path d="M26.4879 19.9404C26.8444 19.5461 27.4531 19.5156 27.8474 19.8721C28.2416 20.2287 28.2722 20.8374 27.9156 21.2316C27.5591 21.6259 26.9504 21.6565 26.5561 21.2999C26.1619 20.9433 26.1313 20.3347 26.4879 19.9404Z" fill="#FF9D00"/>
<path d="M19.6005 5.41898C19.9571 5.0247 20.5657 4.99414 20.96 5.35071C21.3543 5.70728 21.3848 6.31599 21.0283 6.71021C20.6717 7.10449 20.063 7.13505 19.6688 6.77848C19.2745 6.42191 19.2439 5.81325 19.6005 5.41898Z" fill="#FF9D00"/>
<path d="M17.6245 11.4653C17.6245 10.913 17.1768 10.4653 16.6245 10.4653C16.0722 10.4653 15.6245 10.913 15.6245 11.4653L16.6245 11.4653L17.6245 11.4653ZM16.6245 17.4106L17.6245 17.4106L17.6245 11.4653L16.6245 11.4653L15.6245 11.4653L15.6245 17.4106L16.6245 17.4106Z" fill="#FF9D00"/>
<path d="M21.7205 17.4106H16.6245" stroke="#FF9D00" stroke-width="2" stroke-miterlimit="10" stroke-linecap="round" stroke-linejoin="round"/>
<path d="M17.0365 5.26707L14.2611 3.28041" stroke="#FF9D00" stroke-width="2" stroke-miterlimit="10" stroke-linecap="round" stroke-linejoin="round"/>
<path d="M17.0365 5.26703L14.9096 7.63452" stroke="#FF9D00" stroke-width="2" stroke-miterlimit="10" stroke-linecap="round" stroke-linejoin="round"/>
</svg>
