<svg width="32" height="32" viewBox="0 0 32 32" fill="none" xmlns="http://www.w3.org/2000/svg">
<path d="M4.2002 29V4.03318C4.20027 3.71812 4.38538 3.43265 4.67285 3.30369C9.4575 1.1573 12.815 2.60694 15.9971 3.75779C17.5922 4.33468 19.1268 4.83386 20.8545 4.89451C22.5642 4.95452 24.517 4.58483 26.9141 3.32517C27.1619 3.19511 27.4596 3.20392 27.6992 3.34861C27.9389 3.49344 28.0859 3.75312 28.0859 4.03318V17.6513C28.0859 17.9274 27.9432 18.1839 27.709 18.3301C25.3405 19.8061 23.1578 20.2509 21.0967 20.1387C19.0659 20.028 17.1869 19.3763 15.4492 18.7392C12.0341 17.4873 9.15592 16.3235 5.7998 18.1181V29C5.7998 29.4418 5.44183 29.7998 5 29.7998C4.55817 29.7998 4.2002 29.4418 4.2002 29ZM15.4531 5.26267C12.3525 4.14128 9.67189 3.00328 5.7998 4.56346V16.3418C9.57203 14.7095 12.909 16.1041 16 17.2373C17.7444 17.8768 19.4188 18.4458 21.1836 18.542C22.8127 18.6307 24.5495 18.3156 26.4854 17.1982V5.30564C24.3651 6.23922 22.5063 6.5541 20.7979 6.49412C18.7999 6.42391 17.0614 5.84433 15.4531 5.26267Z" fill="#FF9D00"/>
<path d="M27.3786 10.9521C24.4449 12.2884 22.0442 12.4685 19.8885 12.1461V5.22852L27.3786 4.20709V10.9521Z" fill="#FF9D00"/>
<path d="M12.3973 9.85293C10.1752 9.22493 7.81167 8.98498 4.90716 10.0375V3.18571H12.3973V9.85293Z" fill="#FF9D00"/>
<path d="M12.3973 9.85293C14.8849 10.556 17.1954 11.7433 19.8885 12.1461L19.8884 19.5286L12.3973 17.4857L12.3973 9.85293Z" fill="#FF9D00"/>
</svg>
