<svg width="21" height="21" viewBox="0 0 21 21" fill="none" xmlns="http://www.w3.org/2000/svg">
<path d="M8.925 1.22637L9.58125 0.352734C9.74531 0.13125 10.0078 0 10.2826 0C10.7625 0 11.1562 0.39375 11.1562 0.873633V1.78418C11.1562 2.32148 11.3777 2.83828 11.7674 3.20742L15.2414 6.52148C17.243 8.43281 18.375 11.0824 18.375 13.851C18.375 17.8008 15.1758 21 11.226 21H10.5C6.15234 21 2.625 17.4727 2.625 13.125V12.9691C2.625 10.9676 3.4207 9.04805 4.83574 7.63301L4.9793 7.48945C5.15156 7.31719 5.38945 7.21875 5.63555 7.21875C6.14824 7.21875 6.5625 7.63301 6.5625 8.1457V11.8125C6.5625 13.2604 7.73965 14.4375 9.1875 14.4375C10.6354 14.4375 11.8125 13.2604 11.8125 11.8125V11.6525C11.8125 10.9143 11.5172 10.2047 10.9963 9.68379L9.41309 8.10059C8.42871 7.11621 7.875 5.775 7.875 4.38047C7.875 3.24434 8.24414 2.13281 8.925 1.22637Z" fill="#FF9D00"/>
</svg>
