<svg width="32" height="32" viewBox="0 0 32 32" fill="none" xmlns="http://www.w3.org/2000/svg">
<path d="M16 3.5C13.5277 3.5 11.111 4.23311 9.05539 5.60663C6.99977 6.98015 5.39762 8.93238 4.45152 11.2165C3.50543 13.5005 3.25788 16.0139 3.7402 18.4386C4.22251 20.8634 5.41302 23.0907 7.16118 24.8388C8.90934 26.587 11.1366 27.7775 13.5614 28.2598C15.9861 28.7421 18.4995 28.4946 20.7836 27.5485C23.0676 26.6024 25.0199 25.0002 26.3934 22.9446C27.7669 20.889 28.5 18.4723 28.5 16C28.4964 12.6859 27.1782 9.5086 24.8348 7.16518C22.4914 4.82177 19.3141 3.50364 16 3.5ZM16 27.3263C15.2088 26.565 13.125 24.275 12.0913 20.5H19.9088C18.875 24.275 16.7913 26.565 16 27.3263ZM11.8525 19.5C11.3825 17.1903 11.3825 14.8097 11.8525 12.5H20.1475C20.6175 14.8097 20.6175 17.1903 20.1475 19.5H11.8525ZM16 4.67375C16.7913 5.435 18.875 7.725 19.9088 11.5H12.0913C13.125 7.725 15.2088 5.435 16 4.67375ZM21.1763 12.5H26.955C27.6817 14.7768 27.6817 17.2232 26.955 19.5H21.1763C21.6079 17.1866 21.6079 14.8134 21.1763 12.5ZM26.5825 11.5H20.9575C20.3266 8.92774 19.0737 6.54977 17.3088 4.575C19.3277 4.80957 21.2488 5.57361 22.8774 6.78973C24.506 8.00584 25.7842 9.63081 26.5825 11.5ZM14.6925 4.575C12.9276 6.54977 11.6747 8.92774 11.0438 11.5H5.41876C6.2171 9.63081 7.49531 8.00584 9.12389 6.78973C10.7525 5.57361 12.6736 4.80957 14.6925 4.575ZM5.04501 12.5H10.8238C10.3921 14.8134 10.3921 17.1866 10.8238 19.5H5.04501C4.31836 17.2232 4.31836 14.7768 5.04501 12.5ZM11.045 20.5C11.6759 23.0723 12.9289 25.4502 14.6938 27.425C12.6744 27.1908 10.7528 26.427 9.1237 25.2109C7.49465 23.9947 6.21606 22.3695 5.41751 20.5H11.045ZM17.31 27.425C19.074 25.45 20.3261 23.072 20.9563 20.5H26.5813C25.7829 22.3692 24.5047 23.9942 22.8761 25.2103C21.2476 26.4264 19.3265 27.1904 17.3075 27.425H17.31Z" fill="#FF9D00"/>
<path d="M28.2002 16C28.1966 12.7655 26.9102 9.66411 24.6231 7.37695C22.4788 5.23268 19.6188 3.96808 16.6045 3.81543L16 3.7998C13.5871 3.79981 11.228 4.51589 9.22169 5.85645C7.21565 7.19696 5.65185 9.10201 4.72852 11.3311C3.80517 13.5602 3.56352 16.0134 4.03419 18.3799C4.50493 20.7465 5.66686 22.9208 7.37306 24.627C9.07926 26.3332 11.2536 27.4951 13.6201 27.9658C15.9866 28.4365 18.4398 28.1948 20.669 27.2715C22.898 26.3482 24.803 24.7844 26.1436 22.7783C27.4841 20.772 28.2002 18.4129 28.2002 16ZM11.2803 20.2002L11.3359 20.4287C11.9551 22.953 13.1851 25.2866 14.917 27.2246L15.4434 27.8145L14.6592 27.7227C12.5873 27.4824 10.6158 26.6989 8.94434 25.4512C7.27299 24.2035 5.96093 22.5362 5.14161 20.6182L4.9629 20.2002H11.2803ZM20.3018 20.2002L20.1983 20.5791C19.1457 24.4226 17.0237 26.7572 16.208 27.542L16 27.7422L15.792 27.542C14.9763 26.7572 12.8543 24.4226 11.8018 20.5791L11.6983 20.2002H20.3018ZM27.0352 20.2002L26.8574 20.6182C26.0384 22.5358 24.7265 24.2025 23.0557 25.4502C21.4165 26.6742 19.4883 27.4507 17.46 27.707L17.4443 27.7246H17.3076L17.2881 27.4062L17.0859 27.2256C18.8172 25.2872 20.0466 22.953 20.665 20.4287L20.7207 20.2002H27.0352ZM5.88282 20.7998C6.66644 22.445 7.83881 23.8778 9.30274 24.9707C10.6779 25.9973 12.2676 26.6921 13.9473 27.0078C12.4739 25.1867 11.4051 23.0709 10.8135 20.7998H5.88282ZM21.1885 20.7998C20.5975 23.0706 19.5282 25.1856 18.0557 27.0068C19.7342 26.6906 21.3221 25.9958 22.6963 24.9697C24.1599 23.8768 25.3328 22.4448 26.1162 20.7998H21.1885ZM12.4893 20.7998C13.4474 23.9881 15.1518 26.03 16 26.8984C16.8482 26.03 18.5526 23.9881 19.5108 20.7998H12.4893ZM11.1846 12.2002L11.1191 12.5547C10.6943 14.8317 10.6943 17.1683 11.1191 19.4453L11.1846 19.7998H4.82618L4.7588 19.5908C4.01341 17.255 4.01341 14.745 4.7588 12.4092L4.82618 12.2002H11.1846ZM20.3926 12.2002L20.4414 12.4404C20.9194 14.7894 20.9194 17.2106 20.4414 19.5596L20.3926 19.7998H11.6074L11.5586 19.5596C11.0806 17.2106 11.0806 14.7894 11.5586 12.4404L11.6074 12.2002H20.3926ZM27.1738 12.2002L27.2412 12.4092C27.9866 14.745 27.9866 17.255 27.2412 19.5908L27.1738 19.7998H20.8154L20.8809 19.4453C21.3057 17.1683 21.3057 14.8317 20.8809 12.5547L20.8154 12.2002H27.1738ZM21.5322 12.7998C21.887 14.9187 21.887 17.0813 21.5322 19.2002H26.7315C27.3536 17.1118 27.3536 14.8882 26.7315 12.7998H21.5322ZM12.1006 12.7998C11.7013 14.9147 11.7013 17.0853 12.1006 19.2002H19.8994C20.2987 17.0853 20.2987 14.9147 19.8994 12.7998H12.1006ZM5.26856 12.7998C4.64641 14.8882 4.64641 17.1118 5.26856 19.2002H10.4678C10.113 17.0813 10.113 14.9187 10.4678 12.7998H5.26856ZM14.916 4.77539C13.1841 6.71343 11.9541 9.04694 11.335 11.5713L11.2793 11.7998H4.96485L5.14259 11.3818C5.96165 9.46418 7.27356 7.7975 8.94434 6.5498C10.6153 5.30205 12.5867 4.51801 14.6582 4.27734L15.4424 4.18555L14.916 4.77539ZM16.208 4.45801C17.0237 5.24279 19.1457 7.57741 20.1983 11.4209L20.3018 11.7998H11.6983L11.8018 11.4209C12.8543 7.57742 14.9763 5.2428 15.792 4.45801L16 4.25781L16.208 4.45801ZM17.3438 4.27734C19.4151 4.51807 21.3858 5.30213 23.0567 6.5498C24.7275 7.79749 26.0393 9.46416 26.8584 11.3818L27.0371 11.7998H20.7227L20.666 11.5713C20.0468 9.0469 18.817 6.71344 17.085 4.77539L16.5586 4.18555L17.3438 4.27734ZM18.0537 4.99121C19.5277 6.81264 20.5977 8.92854 21.1895 11.2002H26.1172C25.3338 9.55535 24.1617 8.12313 22.6983 7.03027C21.3231 6.00342 19.7336 5.3071 18.0537 4.99121ZM16 5.10059C15.1519 5.96877 13.4476 8.01131 12.4893 11.2002H19.5108C18.5525 8.0113 16.8481 5.96877 16 5.10059ZM13.9463 4.99121C12.267 5.3072 10.6785 6.00373 9.30372 7.03027C7.84013 8.12318 6.66723 9.55519 5.8838 11.2002H10.8115C11.4033 8.92877 12.4726 6.81252 13.9463 4.99121ZM28.791 16.4736C28.7034 18.8393 27.9612 21.1379 26.6426 23.1113C25.2362 25.2161 23.2372 26.8564 20.8984 27.8252C18.5596 28.794 15.9859 29.0476 13.5029 28.5537C11.02 28.0598 8.73934 26.8409 6.94923 25.0508C5.15912 23.2607 3.94019 20.98 3.4463 18.4971C2.95241 16.0141 3.20601 13.4405 4.17481 11.1016C5.14361 8.76282 6.78387 6.76385 8.88868 5.35742C10.9936 3.95094 13.4684 3.2002 16 3.2002C19.3935 3.20392 22.6473 4.55353 25.0469 6.95312C27.4465 9.35272 28.7961 12.6065 28.7998 16L28.791 16.4736Z" fill="#FF9D00"/>
</svg>
