<svg width="100" height="60" viewBox="0 0 100 60" fill="none" xmlns="http://www.w3.org/2000/svg">
<path fill-rule="evenodd" clip-rule="evenodd" d="M54.2646 0.0265725C54.0813 0.0480867 53.3959 0.112401 52.7412 0.169558C52.0867 0.226815 50.9298 0.381244 50.1705 0.512887C39.4203 2.37602 29.2668 8.99615 23.3657 17.9897C21.1641 21.3451 19.7426 24.5877 18.8491 28.293C16.7043 37.1856 18.6622 45.6064 24.2759 51.6337C27.0087 54.568 30.7815 56.9586 34.9198 58.3784C43.3041 61.2547 53.2455 60.2737 62.2489 55.6816C66.4825 53.5221 70.0785 50.8367 73.4974 47.2809C75.3916 45.3109 76.4689 43.9099 78.0419 41.371C81.3782 35.9861 82.7435 31.6107 82.9796 25.5461C83.2402 18.8503 80.9985 12.7909 76.552 8.17183C74.4551 5.99377 72.5771 4.60253 69.8793 3.22892C66.733 1.62687 63.5127 0.665087 59.7869 0.214801C58.5607 0.0665869 54.9686 -0.0558704 54.2646 0.0265725Z" fill="#FF9D00"/>
<path d="M65.4952 38.3126V35.3438C65.4952 30.9684 61.8813 27.3873 57.4696 27.3873H56.47C55.9524 28.7521 55.0126 29.9065 53.8116 30.6982C57.3829 32.1821 59.9033 35.6884 59.9033 39.7969V44.2501C59.9033 44.7746 59.4829 45.1996 58.9644 45.1998C58.4458 45.1998 58.0244 44.7747 58.0244 44.2501V39.7969C58.0244 35.4189 54.4481 31.8405 50 31.8405C45.5519 31.8405 41.9756 35.4189 41.9756 39.7969V44.2501C41.9756 44.7747 41.5542 45.1998 41.0356 45.1998C40.5171 45.1996 40.0967 44.7746 40.0967 44.2501V39.7969C40.0967 35.6888 42.6165 32.1823 46.1873 30.6982C44.9867 29.9066 44.0475 28.7518 43.53 27.3873H42.5304C38.1188 27.3873 34.5049 30.9684 34.5049 35.3438V38.3126C34.5049 38.8372 34.0846 39.2623 33.566 39.2623C33.0474 39.2623 32.6271 38.8372 32.6271 38.3126V35.3438C32.6271 31.2306 35.174 27.7232 38.7429 26.2416C36.8852 25.0114 35.6358 22.9072 35.6145 20.5082V20.4919C35.6483 16.6807 38.7804 13.6128 42.5304 13.6128C45.6371 13.613 48.2578 15.5285 49.209 18.1111C49.4687 18.0816 49.7326 18.0659 50 18.0659C50.267 18.0659 50.5305 18.0817 50.7898 18.1111C51.7409 15.5283 54.3628 13.613 57.4696 13.6128C61.2196 13.6128 64.3517 16.6807 64.3855 20.4919V20.5082C64.3642 22.9076 63.1141 25.0115 61.256 26.2416C64.8254 27.7229 67.3729 31.2302 67.3729 35.3438V38.3126C67.3729 38.8372 66.9527 39.2623 66.434 39.2623C65.9154 39.2623 65.4952 38.8372 65.4952 38.3126ZM43.0852 24.9532C43.0852 22.0672 44.8617 19.6118 47.3703 18.5831C46.6416 16.8633 44.8033 15.5125 42.5304 15.5123C39.79 15.5123 37.518 17.7612 37.4934 20.5082C37.5268 23.2478 39.7954 25.4878 42.5304 25.4878H43.1082C43.0946 25.3114 43.0852 25.1332 43.0852 24.9532ZM44.963 24.9532C44.963 27.6062 47.0646 29.7996 49.7398 29.934L50 29.9409L50.2602 29.934C52.9354 29.7996 55.037 27.6062 55.037 24.9532C55.037 22.2147 52.7978 19.9655 50 19.9655C47.2022 19.9655 44.963 22.2147 44.963 24.9532ZM56.9148 24.9532C56.9148 25.1332 56.9054 25.3114 56.8918 25.4878H57.4696L57.7252 25.4808C60.3448 25.3467 62.4743 23.1621 62.5066 20.5082C62.482 17.7612 60.21 15.5123 57.4696 15.5123C55.1965 15.5125 53.3571 16.8631 52.6286 18.5831C55.1377 19.6116 56.9148 22.0668 56.9148 24.9532Z" fill="white"/>
</svg>
