<svg width="32" height="32" viewBox="0 0 32 32" fill="none" xmlns="http://www.w3.org/2000/svg">
<path d="M29.0486 23V20.5C29.0486 16.8155 26.0053 13.7998 22.2902 13.7998H21.4484C21.0125 14.9491 20.2211 15.9212 19.2098 16.5879C22.2172 17.8375 24.3396 20.7902 24.3396 24.25V28C24.3396 28.4417 23.9856 28.7996 23.549 28.7998C23.1122 28.7998 22.7574 28.4418 22.7574 28V24.25C22.7574 20.5632 19.7457 17.5498 16 17.5498C12.2543 17.5498 9.2426 20.5632 9.2426 24.25V28C9.2426 28.4418 8.88776 28.7998 8.45101 28.7998C8.01442 28.7996 7.6604 28.4417 7.6604 28V24.25C7.6604 20.7905 9.78228 17.8377 12.7893 16.5879C11.7782 15.9213 10.9874 14.9488 10.5516 13.7998H9.70982C5.99474 13.7998 2.95145 16.8155 2.95145 20.5V23C2.95145 23.4418 2.59759 23.7998 2.16083 23.7998C1.72408 23.7998 1.37022 23.4418 1.37022 23V20.5C1.37022 17.0362 3.51494 14.0826 6.52033 12.835C4.95599 11.799 3.90383 10.0271 3.8859 8.00684V7.99316C3.91439 4.78371 6.55193 2.2002 9.70982 2.2002C12.326 2.20034 14.5329 3.8134 15.3339 5.98828C15.5526 5.96342 15.7748 5.9502 16 5.9502C16.2248 5.9502 16.4467 5.96349 16.6651 5.98828C17.466 3.81324 19.6739 2.20034 22.2902 2.2002C25.4481 2.2002 28.0856 4.78371 28.1141 7.99316V8.00684C28.0962 10.0274 27.0434 11.7991 25.4787 12.835C28.4845 14.0824 30.6298 17.0359 30.6298 20.5V23C30.6298 23.4418 30.2759 23.7998 29.8392 23.7998C29.4024 23.7998 29.0486 23.4418 29.0486 23ZM10.177 11.75C10.177 9.31971 11.673 7.25202 13.7855 6.38574C13.1719 4.93743 11.6238 3.79994 9.70982 3.7998C7.40207 3.7998 5.48882 5.6936 5.4681 8.00684C5.49622 10.3139 7.40662 12.2002 9.70982 12.2002H10.1964C10.1849 12.0516 10.177 11.9016 10.177 11.75ZM11.7583 11.75C11.7583 13.9841 13.5281 15.8312 15.7809 15.9443L16 15.9502L16.2191 15.9443C18.4719 15.8312 20.2417 13.9841 20.2417 11.75C20.2417 9.44393 18.3561 7.5498 16 7.5498C13.6439 7.5498 11.7583 9.44393 11.7583 11.75ZM21.823 11.75C21.823 11.9016 21.8151 12.0516 21.8036 12.2002H22.2902L22.5055 12.1943C24.7114 12.0814 26.5047 10.2417 26.5319 8.00684C26.5112 5.6936 24.5979 3.7998 22.2902 3.7998C20.376 3.79994 18.827 4.93726 18.2135 6.38574C20.3265 7.25182 21.823 9.31939 21.823 11.75Z" fill="#FF9D00"/>
</svg>
