<svg width="100" height="60" viewBox="0 0 100 60" fill="none" xmlns="http://www.w3.org/2000/svg">
<path fill-rule="evenodd" clip-rule="evenodd" d="M54.2646 0.0265725C54.0813 0.0480867 53.3959 0.112401 52.7412 0.169558C52.0867 0.226815 50.9298 0.381244 50.1705 0.512887C39.4203 2.37602 29.2668 8.99615 23.3657 17.9897C21.1641 21.3451 19.7426 24.5877 18.8491 28.293C16.7043 37.1856 18.6622 45.6064 24.2759 51.6337C27.0087 54.568 30.7815 56.9586 34.9198 58.3784C43.3041 61.2547 53.2455 60.2737 62.2489 55.6816C66.4825 53.5221 70.0785 50.8367 73.4974 47.2809C75.3916 45.3109 76.4689 43.9099 78.0419 41.371C81.3782 35.9861 82.7435 31.6107 82.9796 25.5461C83.2402 18.8503 80.9985 12.7909 76.552 8.17183C74.4551 5.99377 72.5771 4.60253 69.8793 3.22892C66.733 1.62687 63.5127 0.665087 59.7869 0.214801C58.5607 0.0665869 54.9686 -0.0558704 54.2646 0.0265725Z" fill="#FF9D00"/>
<path d="M49.0502 46.625V43.8175C42.174 43.3482 36.6514 37.8261 36.1826 30.9498H33.375C32.8503 30.9498 32.4252 30.5247 32.4252 30.0001C32.4252 29.4754 32.8503 29.0503 33.375 29.0503H36.1826C36.6521 22.1747 42.1745 16.6518 49.0502 16.1826V13.3751C49.0502 12.8504 49.4753 12.4253 50 12.4253C50.5247 12.4253 50.9498 12.8504 50.9498 13.3751V16.1826C57.8255 16.6517 63.3479 22.1746 63.8174 29.0503H66.625C67.1497 29.0503 67.5748 29.4754 67.5748 30.0001C67.5748 30.5247 67.1497 30.9498 66.625 30.9498H63.8174C63.3486 37.8261 57.826 43.3483 50.9498 43.8175V46.625C50.9498 47.1497 50.5247 47.5748 50 47.5748C49.4753 47.5748 49.0502 47.1497 49.0502 46.625ZM50 18.0497C43.4192 18.0497 38.0496 23.4204 38.0496 30.0012C38.0498 36.5818 43.4193 41.9515 50 41.9516C56.5806 41.9516 61.9502 36.5818 61.9504 30.0012C61.9504 23.4204 56.5808 18.0497 50 18.0497ZM55.273 23.4746C55.6317 23.3161 56.0509 23.3947 56.3283 23.6717C56.6058 23.9492 56.6841 24.3693 56.5255 24.7282L51.1921 36.7934C51.032 37.1557 50.6634 37.3811 50.2679 37.3581C49.8724 37.3351 49.5327 37.0686 49.4155 36.6902L47.9729 32.0272L43.311 30.5857C42.9325 30.4686 42.6661 30.1289 42.6431 29.7333C42.62 29.3378 42.8454 28.9693 43.2078 28.8091L55.273 23.4746ZM46.2983 29.52L49.0143 30.3596L49.1233 30.4013C49.3701 30.5124 49.5594 30.7249 49.6405 30.9869L50.4801 33.7029L53.7944 26.2056L46.2983 29.52Z" fill="white"/>
</svg>
