<svg width="32" height="32" viewBox="0 0 32 32" fill="none" xmlns="http://www.w3.org/2000/svg">
<path d="M16.0961 26.4315C16.347 26.5748 16.656 26.5746 16.9064 26.4305H16.9074L16.9094 26.4286C16.9112 26.4275 16.9141 26.4265 16.9173 26.4247C16.9237 26.4209 16.933 26.4151 16.9449 26.4081C16.969 26.394 17.0044 26.3734 17.0495 26.3465C17.1398 26.2929 17.2706 26.2142 17.4364 26.1122C17.7683 25.9079 18.2407 25.6098 18.8063 25.2313C19.9364 24.4751 21.4481 23.3932 22.9644 22.0946C24.4772 20.799 26.0174 19.2678 27.1876 17.6112C28.3524 15.9622 29.1988 14.1196 29.2109 12.2157C29.2366 8.1654 26.1688 4.76565 22.2735 4.76549C19.8336 4.76549 17.7296 6.10888 16.4998 8.09557C15.27 6.10904 13.1667 4.76557 10.727 4.76549C6.8229 4.76549 3.81444 8.17301 3.78864 12.2059C3.77647 14.114 4.61384 15.9599 5.77541 17.6102C6.94236 19.2681 8.48617 20.7998 10.0046 22.0956C11.5265 23.3943 13.0464 24.4761 14.1834 25.2323C14.7525 25.6108 15.228 25.9089 15.5622 26.1131C15.7292 26.2153 15.8611 26.2939 15.952 26.3475C15.9973 26.3743 16.0324 26.395 16.0566 26.409C16.0685 26.416 16.0777 26.4219 16.0843 26.4256C16.0875 26.4275 16.0903 26.4295 16.0922 26.4305L16.0951 26.4315H16.0961ZM16.4119 24.7518C16.093 24.5568 15.6353 24.2699 15.0855 23.9042C13.984 23.1715 12.5196 22.1287 11.0606 20.8837C9.59792 19.6355 8.16273 18.2033 7.10189 16.6962C6.03582 15.1815 5.39608 13.6598 5.40529 12.2157C5.42663 8.90812 7.86056 6.3651 10.727 6.3651C12.9926 6.3652 14.9798 7.94135 15.7309 10.2411L15.7803 10.3602C15.9168 10.6241 16.193 10.7957 16.4998 10.7958C16.8505 10.7958 17.1618 10.5713 17.2696 10.2411C18.0209 7.94134 20.0079 6.3651 22.2735 6.3651C25.1485 6.36526 27.6153 8.91591 27.5943 12.2059C27.585 13.6543 26.9331 15.1791 25.8621 16.6952C24.7966 18.2036 23.3639 19.6364 21.9064 20.8846C20.4526 22.1297 18.9961 23.1725 17.9013 23.9051C17.3546 24.271 16.8995 24.5588 16.5827 24.7538C16.5536 24.7716 16.5255 24.7882 16.4988 24.8046C16.4712 24.7878 16.4421 24.7702 16.4119 24.7518Z" fill="#2B5F84"/>
</svg>
