<svg width="32" height="32" viewBox="0 0 32 32" fill="none" xmlns="http://www.w3.org/2000/svg">
<path d="M14.9976 2.30268C15.5223 1.54414 16.6614 1.59817 17.0985 2.46479L20.5902 9.38862L27.9637 10.7236C28.948 10.9019 29.3385 12.1615 28.6423 12.9111L23.4276 18.5244L24.4926 26.2744C24.6347 27.309 23.611 28.0871 22.7145 27.6259L16 24.1708L9.28544 27.6259C8.38894 28.0871 7.36524 27.309 7.5074 26.2744L8.57143 18.5244L3.35771 12.9111C2.66146 12.1615 3.05197 10.9019 4.03626 10.7236L11.4088 9.38862L14.9014 2.46479L14.9976 2.30268ZM12.6959 10.2666C12.5161 10.6228 12.1886 10.8716 11.8092 10.9404L4.83241 12.2031L9.76705 17.5156C10.0355 17.8045 10.1606 18.2075 10.1059 18.6064L9.09784 25.9384L15.4521 22.6708L15.5837 22.6123C15.8529 22.5121 16.1471 22.5121 16.4163 22.6123L16.5479 22.6708L22.9012 25.9384L21.8941 18.6064C21.8394 18.2075 21.9645 17.8045 22.2329 17.5156L27.1666 12.2031L20.1907 10.9404C19.8113 10.8716 19.4839 10.6228 19.3041 10.2666L16 3.71479L12.6959 10.2666Z" fill="#FF9D00"/>
</svg>
