<svg width="20" height="20" viewBox="0 0 20 20" fill="none" xmlns="http://www.w3.org/2000/svg">
<path d="M17.3336 5.83374C17.3336 4.08484 15.9156 2.66675 14.1667 2.66675H5.83365C4.08475 2.66675 2.66666 4.08484 2.66666 5.83374V14.1667C2.66666 15.9156 4.08475 17.3337 5.83365 17.3337H14.1667C15.9156 17.3337 17.3336 15.9156 17.3336 14.1667V5.83374ZM19.3336 14.1667C19.3336 17.0202 17.0201 19.3337 14.1667 19.3337H5.83365C2.98018 19.3337 0.666656 17.0202 0.666656 14.1667V5.83374C0.666656 2.98027 2.98018 0.666748 5.83365 0.666748H14.1667C17.0201 0.666748 19.3336 2.98027 19.3336 5.83374V14.1667Z" fill="#FF9D00"/>
<path d="M8.04062 6.11784C8.84955 5.69814 9.77 5.54377 10.6715 5.67741C11.5911 5.81378 12.4428 6.24265 13.1002 6.90006C13.7574 7.55736 14.1864 8.40835 14.3228 9.3278C14.4565 10.2294 14.3022 11.1506 13.8824 11.9596C13.4626 12.7687 12.7981 13.4249 11.984 13.8346C11.1699 14.2443 10.247 14.3866 9.34726 14.2419C8.44761 14.097 7.61664 13.6723 6.97226 13.028C6.32776 12.3835 5.90222 11.5519 5.75741 10.652C5.6127 9.75224 5.75589 8.82934 6.16562 8.0153C6.57541 7.20132 7.23171 6.53756 8.04062 6.11784ZM10.3785 7.65592C9.89303 7.58393 9.39715 7.66719 8.96152 7.89323C8.52595 8.11926 8.17239 8.47638 7.95175 8.91471C7.7311 9.3531 7.65405 9.85008 7.73202 10.3346C7.81 10.8192 8.03929 11.2669 8.38632 11.6139C8.73334 11.9609 9.18114 12.1893 9.66562 12.2673C10.1501 12.3452 10.6472 12.2691 11.0855 12.0485C11.5238 11.8279 11.881 11.4742 12.107 11.0387C12.333 10.6031 12.4163 10.1072 12.3443 9.62174C12.2709 9.12661 12.04 8.6681 11.6861 8.31413C11.3322 7.96018 10.8736 7.72939 10.3785 7.65592Z" fill="#FF9D00"/>
<path d="M14.5931 4.41675C15.1454 4.41675 15.5931 4.86446 15.5931 5.41675C15.5931 5.96903 15.1454 6.41675 14.5931 6.41675H14.5833C14.0311 6.41675 13.5833 5.96903 13.5833 5.41675C13.5833 4.86446 14.0311 4.41675 14.5833 4.41675H14.5931Z" fill="#FF9D00"/>
</svg>
