<svg width="135" height="36" viewBox="0 0 135 36" fill="none" xmlns="http://www.w3.org/2000/svg">
<g clip-path="url(#clip0_16_47)">
<path d="M38.432 27.4161V6.07474H53.0547V10.1943H43.0588V14.7342H51.8969V18.7567H43.0588V23.2966H53.6087V27.4161H38.432Z" fill="#274357"/>
<path d="M57.3807 27.4161V10.5241H61.8301L61.8214 12.4405C62.1114 12.4405 62.2305 12.4297 62.4534 12.2098C63.5722 11.1104 65.0113 10.2029 66.8075 10.2029C71.0556 10.2029 73.4015 12.4772 73.4015 17.0925V27.414H68.6491V18.1208C68.6491 15.7818 67.8051 14.2103 65.7774 14.2103C63.1069 14.2103 61.9188 15.6827 61.9188 18.4075V27.4161H57.3807Z" fill="#274357"/>
<path d="M87.243 18.7933C87.0222 18.5691 86.5807 18.345 85.9813 18.0561C85.3818 17.7672 84.9404 17.6077 84.6872 17.5107L83.1442 16.9351C81.0299 16.1655 80.7832 15.7495 80.7832 15.2364C80.7832 14.6264 81.2052 13.9775 82.1963 13.8633C83.1875 13.7512 84.7391 13.7124 86.7928 14.967L88.0415 11.7615C85.977 10.4508 84.2392 10.2029 82.2374 10.2029C80.504 10.2029 78.8485 10.7806 77.7448 11.7421C76.6411 12.6712 76.1888 13.9667 76.1888 15.3636C76.1888 16.7605 76.4355 18.0992 78.6364 19.3301C80.2876 20.2527 82.1206 20.7938 82.1206 20.7938C84.3063 21.5354 84.3604 22.029 84.2349 22.7986C84.1418 23.344 83.4753 23.8721 82.4344 23.8721C80.7226 23.8721 79.0151 23.5014 77.4505 22.2209L75.8382 25.3876C77.8595 27.0044 80.0993 27.414 82.5123 27.414C84.3734 27.414 85.9185 27.1898 87.1153 26.2607C88.3445 25.3316 88.8054 23.8765 88.8054 22.2532C88.8054 20.63 88.061 19.4659 87.243 18.7933Z" fill="#274357"/>
<path d="M106.618 18.2178C106.588 15.909 105.902 13.9861 104.558 12.4815C103.216 10.9746 101.314 10.205 98.8468 10.205C96.5074 10.205 94.5706 11.0393 93.073 12.7035C91.6058 14.3698 90.857 16.4544 90.857 18.9227C90.857 21.4556 91.6685 23.5704 93.2916 25.2044C94.9168 26.8384 96.8818 27.6726 99.1909 27.6726C100.781 27.6726 102.218 27.4161 103.435 26.9031C104.683 26.3577 105.493 25.9093 105.869 25.5234L104.09 22.1993C102.489 23.2492 100.853 23.7277 99.1909 23.6329C97.2237 23.5057 95.7889 22.4149 95.2912 20.492H106.495C106.588 19.7246 106.618 18.9529 106.618 18.2178ZM95.289 17.1895C95.6937 15.2666 96.9121 14.0486 98.9399 14.0486C101.156 14.0486 102.184 15.5533 102.405 17.1895H95.289Z" fill="#274357"/>
<path d="M111.898 2.07162C113.597 2.07162 114.863 3.36504 114.863 5.09175C114.863 6.81631 113.597 8.04505 111.898 8.04505C110.2 8.04505 108.899 6.78397 108.899 5.09175C108.899 3.36504 110.197 2.07162 111.898 2.07162ZM109.581 10.5241H114.214V27.4161H109.581V10.5241Z" fill="#274357"/>
<path d="M130.687 10.6858L130.559 12.3349C129.497 11.0221 127.824 10.3818 125.539 10.3818C123.158 10.3818 121.195 11.2053 119.618 12.8221C118.073 14.441 117.3 16.3962 117.3 18.623C117.3 20.9124 118.073 22.8353 119.65 24.424C121.226 26.0128 123.286 26.6961 125.764 26.6961C127.724 26.6961 129.399 25.9438 130.59 24.8163V25.8231C130.59 28.2633 128.947 29.796 125.891 29.796C123.996 29.796 122.16 29.4662 120.431 28.4767L118.75 31.7404C121.158 33.0511 123.623 33.7043 126.116 33.7043C132.037 33.7043 134.998 30.9277 134.998 25.3704V10.6858H130.687ZM126.311 22.9603C125.121 22.9301 124.091 22.5011 123.286 21.6173C122.481 20.7335 122.096 19.7246 122.096 18.5648C122.096 17.3749 122.515 16.3984 123.318 15.5727C124.123 14.7493 125.121 14.3203 126.311 14.3203C127.566 14.3203 128.564 14.7493 129.369 15.6029C130.174 16.4587 130.592 17.4654 130.592 18.6575C130.592 21.0978 128.854 22.9603 126.311 22.9603Z" fill="#274357"/>
<path d="M30.5158 15.674C30.2171 24.0877 21.9438 29.7249 16.3929 35.2521C15.7675 35.8751 14.7547 35.8751 14.1293 35.2521C8.47889 29.6235 0 23.8786 0 15.202C0 6.80552 7.16096 0 15.2633 0C20.9116 0 25.2679 3.45558 27.393 7.10301L23.3829 11.0975L17.7087 16.7454H11.0758L20.6302 7.2302C19.6672 6.27738 17.7888 5.0551 15.2633 5.0551C9.63451 5.0551 5.07478 9.5993 5.07478 15.202C5.07478 20.8089 9.63667 25.351 15.2633 25.351C20.7319 25.351 25.1943 21.0611 25.4388 15.674H30.5158Z" fill="#FAA317"/>
</g>
<defs>
<clipPath id="clip0_16_47">
<rect width="135" height="35.7198" fill="white"/>
</clipPath>
</defs>
</svg>
