<svg width="100" height="60" viewBox="0 0 100 60" fill="none" xmlns="http://www.w3.org/2000/svg">
<path d="M10 54.0001C6.68631 54.0001 3.96095 51.3032 4.37847 48.0159C5.15994 41.8629 7.14161 35.9067 10.2299 30.5002C13.3015 25.1228 17.3864 20.4317 22.2331 16.6813C24.871 14.6401 28.5993 15.6593 30.2537 18.5555L45.3728 45.0241C47.6576 49.024 44.7694 54.0001 40.1629 54.0001H10Z" fill="#92D1EE"/>
<path d="M30.1986 18.459C28.5657 15.6004 29.53 11.9195 32.5624 10.638C38.2262 8.24437 44.3219 7.00024 50.5 7.00024C56.6781 7.00024 62.7738 8.24437 68.4376 10.638C71.47 11.9195 72.4343 15.6004 70.8014 18.459L55.7099 44.8791C53.4068 48.9111 47.5932 48.9111 45.2901 44.8791L30.1986 18.459Z" fill="#F3F7F8"/>
<path d="M70.7463 18.5555C72.4007 15.6593 76.129 14.6401 78.7669 16.6813C83.6136 20.4317 87.6985 25.1228 90.7701 30.5002C93.8584 35.9067 95.8401 41.8629 96.6215 48.0159C97.0391 51.3032 94.3137 54.0001 91 54.0001H60.8371C56.2306 54.0001 53.3424 49.024 55.6272 45.0241L70.7463 18.5555Z" fill="#F3F7F8"/>
<path d="M26.2578 11.5607C27.2168 11.0129 28.4384 11.346 28.9863 12.3049L52.2363 53.008C52.7841 53.9671 52.4511 55.1886 51.4922 55.7365C50.5332 56.2843 49.3116 55.9512 48.7637 54.9924L25.5137 14.2893C24.9659 13.3302 25.2989 12.1087 26.2578 11.5607Z" fill="white"/>
<path d="M72.0137 12.3049C72.5616 11.346 73.7832 11.0129 74.7422 11.5607C75.7011 12.1087 76.0341 13.3302 75.4863 14.2893L52.2363 54.9924C51.6884 55.9512 50.4668 56.2843 49.5078 55.7365C48.5489 55.1886 48.2159 53.9671 48.7637 53.008L72.0137 12.3049Z" fill="white"/>
</svg>
