<svg width="32" height="32" viewBox="0 0 32 32" fill="none" xmlns="http://www.w3.org/2000/svg">
<path d="M27.2002 22.6644L23.9092 19.3734C23.8336 19.2977 23.7433 19.2375 23.6445 19.1966C23.5459 19.1558 23.4398 19.1351 23.333 19.1351C23.2262 19.1351 23.1201 19.1557 23.0215 19.1966C22.9476 19.2272 22.879 19.2691 22.8174 19.3196L22.7578 19.3734L21.1309 20.9993L21.8994 21.7679C22.2114 22.0802 22.2114 22.5864 21.8994 22.8987C21.587 23.2112 21.08 23.2112 20.7676 22.8987L15.9092 18.0403C15.8336 17.9647 15.7433 17.9045 15.6445 17.8636C15.5459 17.8227 15.4398 17.8021 15.333 17.8021C15.2262 17.8021 15.1201 17.8227 15.0215 17.8636C14.9476 17.8943 14.879 17.936 14.8174 17.9866L14.7578 18.0403L10.1338 22.6644V24.1107C10.1338 24.8416 10.4236 25.543 10.9404 26.0599C11.4573 26.5766 12.1588 26.8665 12.8896 26.8665H24.4443C24.8061 26.8665 25.1648 26.795 25.499 26.6566C25.8331 26.5181 26.1368 26.3155 26.3926 26.0599C26.6485 25.804 26.8517 25.4997 26.9902 25.1653C27.1287 24.831 27.2002 24.4726 27.2002 24.1107V22.6644ZM3.2002 7.34698C3.2002 5.43849 4.7585 3.88019 6.66699 3.88019H20C20.6499 3.88019 21.2047 4.05134 21.6738 4.39191C22.1256 4.71987 22.4444 5.16616 22.6992 5.62433C22.9139 6.01046 22.7748 6.49748 22.3887 6.71222C22.0025 6.92695 21.5155 6.78781 21.3008 6.40167C21.0998 6.04033 20.9184 5.82048 20.7344 5.68683C20.5675 5.56573 20.3501 5.4798 20 5.4798H6.66699C5.64215 5.4798 4.7998 6.32215 4.7998 7.34698V20.678C4.8006 21.0078 4.88868 21.3316 5.05469 21.6165C5.22066 21.9014 5.45872 22.1378 5.74512 22.3011C6.12893 22.5199 6.26272 23.0081 6.04395 23.3919C5.82513 23.7757 5.33696 23.9096 4.95312 23.6907C4.42194 23.3879 3.97969 22.9505 3.67188 22.4222C3.36406 21.8938 3.20167 21.2934 3.2002 20.6819V7.34698ZM22.6797 13.5335C23.1215 13.5335 23.4795 13.8915 23.4795 14.3333C23.4795 14.7751 23.1215 15.1331 22.6797 15.1331H22.667C22.2252 15.1331 21.8662 14.7751 21.8662 14.3333C21.8662 13.8915 22.2252 13.5335 22.667 13.5335H22.6797ZM27.2002 12.556C27.2002 12.1941 27.1287 11.8356 26.9902 11.5013C26.8517 11.1669 26.6485 10.8627 26.3926 10.6068C26.1368 10.3511 25.8331 10.1485 25.499 10.0101C25.1648 9.87161 24.8061 9.80016 24.4443 9.80011H12.8896C12.1588 9.80011 11.4573 10.09 10.9404 10.6068C10.4236 11.1236 10.1338 11.8251 10.1338 12.556V20.4007L13.626 16.9085C13.85 16.6843 14.1164 16.5064 14.4092 16.3851C14.702 16.2637 15.016 16.2015 15.333 16.2015C15.6501 16.2015 15.9649 16.2636 16.2578 16.3851C16.5504 16.5064 16.8161 16.6845 17.04 16.9085L20 19.8685L21.626 18.2425L21.8018 18.0833C21.9849 17.9329 22.1895 17.8101 22.4092 17.7191C22.702 17.5977 23.016 17.5355 23.333 17.5355C23.6501 17.5355 23.9649 17.5976 24.2578 17.7191C24.5506 17.8405 24.817 18.0183 25.041 18.2425H25.04L27.2002 20.4026V12.556ZM28.7998 24.1107C28.7998 24.6826 28.6876 25.2492 28.4688 25.7776C28.2499 26.3061 27.9288 26.7863 27.5244 27.1907C27.12 27.5951 26.6397 27.9162 26.1113 28.1351C25.5829 28.3539 25.0163 28.4671 24.4443 28.4671H12.8896C11.7344 28.4671 10.6265 28.0075 9.80957 27.1907C8.99266 26.3738 8.5332 25.2659 8.5332 24.1107V12.556C8.53322 11.4007 8.99267 10.2928 9.80957 9.47589C10.6265 8.6591 11.7345 8.2005 12.8896 8.2005H24.4443C25.0163 8.20055 25.5829 8.31269 26.1113 8.53156C26.6397 8.75046 27.12 9.07148 27.5244 9.47589C27.9288 9.88035 28.2499 10.3605 28.4688 10.889C28.6876 11.4174 28.7998 11.984 28.7998 12.556V24.1107Z" fill="#F3F7F8"/>
</svg>
