<svg width="32" height="32" viewBox="0 0 32 32" fill="none" xmlns="http://www.w3.org/2000/svg">
<path d="M21.8665 10.667C21.8665 7.42703 19.2402 4.79998 16.0003 4.7998C12.7602 4.7998 10.1331 7.42692 10.1331 10.667C10.1333 13.9069 12.7603 16.5332 16.0003 16.5332C19.2401 16.533 21.8663 13.9068 21.8665 10.667ZM23.4671 10.667C23.4669 14.7905 20.1238 18.1336 16.0003 18.1338C11.8767 18.1338 8.53368 14.7906 8.53351 10.667C8.53351 6.54327 11.8766 3.2002 16.0003 3.2002C20.1239 3.20037 23.4671 6.54338 23.4671 10.667Z" fill="#2B5F84"/>
<path d="M25.8665 28.0003C25.8665 25.3835 24.8272 22.8731 22.9769 21.0228C21.1266 19.1726 18.6169 18.1332 16.0003 18.1331C13.3835 18.1331 10.8731 19.1724 9.02277 21.0228C7.17241 22.8731 6.13312 25.3835 6.13312 28.0003C6.13294 28.442 5.77503 28.8001 5.33331 28.8001C4.89159 28.8001 4.53368 28.442 4.53351 28.0003C4.53351 24.9592 5.74149 22.0423 7.89191 19.8919C10.0423 17.7415 12.9592 16.5335 16.0003 16.5335C19.0413 16.5336 21.9574 17.7417 24.1077 19.8919C26.2581 22.0423 27.4671 24.9592 27.4671 28.0003C27.4669 28.442 27.108 28.8001 26.6663 28.8001C26.2248 28.7999 25.8667 28.4419 25.8665 28.0003Z" fill="#2B5F84"/>
</svg>
