<svg width="100" height="60" viewBox="0 0 100 60" fill="none" xmlns="http://www.w3.org/2000/svg">
<path fill-rule="evenodd" clip-rule="evenodd" d="M10.2529 31.0053C10.2163 31.0096 10.0792 31.0225 9.94824 31.0339C9.81734 31.0454 9.58597 31.0762 9.43409 31.1026C7.28406 31.4752 5.25336 32.7992 4.07314 34.5979C3.63283 35.269 3.34852 35.9175 3.16981 36.6586C2.74086 38.4371 3.13245 40.1213 4.25518 41.3267C4.80174 41.9136 5.55631 42.3917 6.38395 42.6757C8.06081 43.2509 10.0491 43.0547 11.8498 42.1363C12.6965 41.7044 13.4157 41.1673 14.0995 40.4562C14.4783 40.0622 14.6938 39.782 15.0084 39.2742C15.6756 38.1972 15.9487 37.3221 15.9959 36.1092C16.048 34.7701 15.5997 33.5582 14.7104 32.6344C14.291 32.1988 13.9154 31.9205 13.3759 31.6458C12.7466 31.3254 12.1025 31.133 11.3574 31.043C11.1121 31.0133 10.3937 30.9888 10.2529 31.0053Z" fill="#36BA6B"/>
<path fill-rule="evenodd" clip-rule="evenodd" d="M30.6004 26.0075C30.5469 26.0136 30.3465 26.0318 30.1551 26.048C29.9638 26.0643 29.6256 26.108 29.4037 26.1453C26.2613 26.6732 23.2934 28.5489 21.5684 31.0971C20.9249 32.0478 20.5094 32.9665 20.2482 34.0163C19.6213 36.5359 20.1936 38.9218 21.8345 40.6296C22.6333 41.4609 23.7361 42.1383 24.9458 42.5406C27.3966 43.3555 30.3025 43.0776 32.9343 41.7764C34.1718 41.1646 35.223 40.4037 36.2223 39.3962C36.776 38.8381 37.0909 38.4411 37.5507 37.7218C38.5259 36.1961 38.925 34.9564 38.994 33.2381C39.0702 31.3409 38.415 29.6241 37.1152 28.3154C36.5023 27.6982 35.9533 27.3041 35.1647 26.9149C34.245 26.4609 33.3037 26.1884 32.2146 26.0609C31.8562 26.0189 30.8062 25.9842 30.6004 26.0075Z" fill="#F3F7F8"/>
<path fill-rule="evenodd" clip-rule="evenodd" d="M55.8321 22.0093C55.7672 22.0168 55.5247 22.0393 55.293 22.0593C55.0614 22.0794 54.6521 22.1334 54.3834 22.1795C50.5795 22.8316 46.9867 25.1487 44.8986 28.2964C44.1196 29.4708 43.6166 30.6057 43.3004 31.9025C42.5415 35.0149 43.2343 37.9622 45.2207 40.0718C46.1877 41.0988 47.5227 41.9355 48.987 42.4324C51.9537 43.4391 55.4715 43.0958 58.6573 41.4886C60.1553 40.7327 61.4278 39.7929 62.6375 38.5483C63.3078 37.8588 63.689 37.3685 64.2456 36.4799C65.4261 34.5952 65.9092 33.0637 65.9928 30.9411C66.085 28.5976 65.2918 26.4768 63.7184 24.8601C62.9764 24.0978 62.3119 23.6109 61.3573 23.1301C60.244 22.5694 59.1045 22.2328 57.7861 22.0752C57.3522 22.0233 56.0812 21.9804 55.8321 22.0093Z" fill="#F3F7F8"/>
<path fill-rule="evenodd" clip-rule="evenodd" d="M85.6217 18.0111C85.5427 18.02 85.2475 18.0468 84.9654 18.0706C84.6835 18.0945 84.1852 18.1589 83.858 18.2137C79.2272 18.99 74.8534 21.7484 72.3114 25.4957C71.363 26.8938 70.7507 28.2449 70.3657 29.7887C69.4419 33.494 70.2853 37.0027 72.7035 39.514C73.8807 40.7367 75.5059 41.7327 77.2885 42.3243C80.9002 43.5228 85.1827 43.114 89.0611 41.2007C90.8848 40.3009 92.4338 39.182 93.9066 37.7004C94.7225 36.8795 95.1866 36.2958 95.8642 35.2379C97.3014 32.9942 97.8895 31.1711 97.9912 28.6442C98.1035 25.8543 97.1378 23.3295 95.2224 21.4049C94.3191 20.4974 93.5101 19.9177 92.348 19.3454C90.9927 18.6779 89.6055 18.2771 88.0005 18.0895C87.4723 18.0277 85.9249 17.9767 85.6217 18.0111Z" fill="#F3F7F8"/>
</svg>
