<svg width="32" height="32" viewBox="0 0 32 32" fill="none" xmlns="http://www.w3.org/2000/svg">
<path d="M24.3357 21.1875H22.4724V28.0948C22.4724 28.6094 22.8894 29.0264 23.4041 29.0264C23.9187 29.0264 24.3357 28.6095 24.3357 28.0948V21.1875ZM24.3357 4.29009C22.0828 7.50628 20.8091 11.473 20.7439 15.6045H24.3357V4.29009ZM25.9363 28.0948C25.9363 29.4931 24.8024 30.627 23.4041 30.627C22.0057 30.627 20.8718 29.4931 20.8718 28.0948V20.3877C20.8718 19.9459 21.2308 19.5879 21.6726 19.5879H24.3503V17.2042H19.9402C19.4984 17.2042 19.1405 16.8461 19.1404 16.4043V15.9375C19.1404 10.5234 21.0755 5.31629 24.5417 1.46489C24.7633 1.21883 25.1134 1.1344 25.4226 1.25298C25.7319 1.37165 25.9363 1.66881 25.9363 2.00005V13.586C25.9453 13.634 25.9509 13.6838 25.9509 13.7344V20.2002C25.9509 20.2541 25.9445 20.3066 25.9343 20.3575C25.9347 20.3675 25.9363 20.3776 25.9363 20.3877V28.0948Z" fill="#FF9D00"/>
<path d="M11.3955 21.3607H9.53223V28.2679C9.53223 28.7826 9.94921 29.1996 10.4639 29.1996C10.9785 29.1996 11.3955 28.7826 11.3955 28.2679V21.3607ZM12.9961 28.2679C12.9961 29.6663 11.8622 30.8002 10.4639 30.8002C9.06556 30.8001 7.93164 29.6663 7.93164 28.2679V20.5609C7.93164 20.1191 8.29059 19.7611 8.73242 19.7611H9.67871C9.66914 19.7116 9.66406 19.6601 9.66406 19.6078V11.2435H8.73242C7.33409 11.2435 6.2002 10.1096 6.2002 8.7113V2.39001C6.2002 1.94819 6.55817 1.58923 7 1.58923C7.44183 1.58923 7.7998 1.94819 7.7998 2.39001V8.7113C7.7998 9.22598 8.21775 9.64294 8.73242 9.64294H9.66406V2.17322C9.66406 1.73141 10.0221 1.37344 10.4639 1.37341C10.9057 1.37341 11.2637 1.73139 11.2637 2.17322V9.64294H12.1963C12.7108 9.64272 13.1279 9.22584 13.1279 8.7113V2.39001C13.1279 1.94822 13.486 1.58929 13.9277 1.58923C14.3696 1.58923 14.7275 1.94819 14.7275 2.39001V8.7113C14.7275 10.1095 13.5944 11.2433 12.1963 11.2435H11.2637V19.6078C11.2637 19.6601 11.2586 19.7116 11.249 19.7611H12.1963C12.6379 19.7613 12.9961 20.1192 12.9961 20.5609V28.2679Z" fill="#FF9D00"/>
</svg>
