<svg width="22" height="22" viewBox="0 0 22 22" fill="none" xmlns="http://www.w3.org/2000/svg">
<path d="M16.7289 10.0836C16.7289 6.41324 13.7538 3.43762 10.0836 3.4375C6.41316 3.4375 3.4375 6.41316 3.4375 10.0836C3.43762 13.7538 6.41324 16.7289 10.0836 16.7289C13.7538 16.7288 16.7288 13.7538 16.7289 10.0836ZM18.1039 10.0836C18.1038 14.5132 14.5132 18.1038 10.0836 18.1039C5.65385 18.1039 2.06262 14.5132 2.0625 10.0836C2.0625 5.65377 5.65377 2.0625 10.0836 2.0625C14.5132 2.06262 18.1039 5.65385 18.1039 10.0836Z" fill="#2B5F84"/>
<path d="M14.7764 14.7764C15.0449 14.5079 15.4801 14.5079 15.7486 14.7764L19.7359 18.7638C20.0044 19.0323 20.0044 19.4675 19.7359 19.736C19.4675 20.0044 19.0323 20.0044 18.7638 19.736L14.7764 15.7486C14.5079 15.4801 14.5079 15.0449 14.7764 14.7764Z" fill="#2B5F84"/>
</svg>
