<svg width="22" height="22" viewBox="0 0 22 22" fill="none" xmlns="http://www.w3.org/2000/svg">
<path d="M18.7001 17.4169C18.7001 16.2019 17.715 15.2168 16.5 15.2168C15.7187 15.2168 15.0339 15.6248 14.6436 16.2386C14.6339 16.2624 14.6234 16.2862 14.61 16.3091C14.5945 16.3358 14.5768 16.3606 14.5577 16.3836C14.3935 16.6917 14.2999 17.0434 14.2999 17.4169C14.3 18.6318 15.285 19.6164 16.5 19.6164C17.715 19.6164 18.7 18.6318 18.7001 17.4169ZM7.70013 10.9998C7.70001 9.78486 6.71495 8.80032 5.5 8.80032C4.28505 8.80032 3.29999 9.78486 3.29987 10.9998C3.29987 12.2148 4.28497 13.1999 5.5 13.1999C6.71503 13.1999 7.70013 12.2148 7.70013 10.9998ZM18.7001 4.58334C18.7001 3.36831 17.715 2.3832 16.5 2.3832C15.285 2.3832 14.2999 3.36831 14.2999 4.58334C14.2999 5.79836 15.285 6.78347 16.5 6.78347C17.715 6.78347 18.7001 5.79836 18.7001 4.58334ZM19.7999 4.58334C19.7999 6.40588 18.3225 7.8832 16.5 7.8832C15.4817 7.8832 14.5715 7.42179 13.9662 6.69686L8.58771 9.83559C8.72434 10.1977 8.79984 10.5899 8.79987 10.9998C8.79987 11.4094 8.72413 11.8014 8.58771 12.1633L13.9689 15.2987C14.5742 14.576 15.4836 14.1164 16.5 14.1164C18.3225 14.1164 19.7999 15.5944 19.7999 17.4169C19.7997 19.2393 18.3225 20.7168 16.5 20.7168C14.6775 20.7168 13.2003 19.2393 13.2001 17.4169C13.2001 17.0056 13.2755 16.6118 13.413 16.2487L8.03381 13.1133C7.42847 13.8383 6.51835 14.3003 5.5 14.3003C3.67746 14.3003 2.20013 12.8223 2.20013 10.9998C2.20026 9.17734 3.67754 7.69991 5.5 7.69991C6.51789 7.69991 7.4278 8.16114 8.03314 8.88558L13.4116 5.74685C13.2752 5.38494 13.2001 4.99296 13.2001 4.58334C13.2001 2.7608 14.6775 1.28347 16.5 1.28347C18.3225 1.28347 19.7999 2.7608 19.7999 4.58334Z" fill="#2B5F84"/>
</svg>
