<svg width="32" height="32" viewBox="0 0 32 32" fill="none" xmlns="http://www.w3.org/2000/svg">
<path d="M4 28.8002V3.83273C4.00008 3.51442 4.18475 3.22636 4.47059 3.09931C9.28843 0.961057 12.6648 2.40282 15.8833 3.5544C17.4955 4.13126 19.0528 4.63308 20.8072 4.69408C22.5452 4.75444 24.5267 4.38196 26.9545 3.11982C27.1974 2.99354 27.4873 3.00562 27.7197 3.15107C27.952 3.29649 28.0936 3.5545 28.0936 3.83273V17.4512C28.0936 17.7315 27.9498 17.991 27.7149 18.1358C25.3264 19.6084 23.1295 20.0513 21.0568 19.9396C19.0121 19.8294 17.119 19.1793 15.362 18.5421C11.9121 17.2909 8.98079 16.1173 5.56671 17.9259V28.8002C5.56671 29.242 5.21609 29.6 4.78335 29.6C4.35061 29.6 4 29.242 4 28.8002ZM15.3649 5.06421C12.2305 3.94272 9.50278 2.79699 5.56671 4.36888V16.1563C9.37874 14.503 12.7473 15.8955 15.8871 17.0342C17.6498 17.6735 19.3473 18.2443 21.1391 18.3409C22.7972 18.4303 24.5627 18.1129 26.5269 16.9903V5.09058C24.3706 6.03687 22.4849 6.35379 20.7546 6.29373C18.743 6.22387 16.9907 5.64596 15.3649 5.06421Z" fill="#FF9D00"/>
</svg>
